<?xml version="1.0" encoding="utf-8"?><svg viewBox="0 0 34 33" xmlns="http://www.w3.org/2000/svg" xmlns:xlink="http://www.w3.org/1999/xlink"><style>:root>svg{display:none}:root>svg:target{display:block}</style><svg fill="none" viewBox="0 0 33 32" id="anchor" xmlns="http://www.w3.org/2000/svg"><path d="M16.5 10c2.568 0 4.65-2.015 4.65-4.5S19.068 1 16.5 1c-2.568 0-4.65 2.015-4.65 4.5S13.932 10 16.5 10Zm0 0v21m0 0c-4.11 0-8.053-1.58-10.96-4.393C2.633 23.794 1 19.978 1 16h4.65M16.5 31c4.11 0 8.053-1.58 10.96-4.393C30.367 23.794 32 19.978 32 16h-4.65" stroke="#fff" stroke-width="1.8" stroke-linecap="round" stroke-linejoin="round"/></svg><svg viewBox="0 0 18 10" id="arrow" xmlns="http://www.w3.org/2000/svg"><path d="M1 5h16m0 0-4-4m4 4-4 4"/></svg><svg fill="none" viewBox="0 0 34 31" id="book" xmlns="http://www.w3.org/2000/svg"><path d="M17 7.444c0-1.709-.674-3.348-1.874-4.556A6.378 6.378 0 0 0 10.6 1H1v24.167h11.2c1.273 0 2.494.509 3.394 1.415A4.85 4.85 0 0 1 17 30m0-22.556V30m0-22.556c0-1.709.674-3.348 1.875-4.556A6.378 6.378 0 0 1 23.4 1H33v24.167H21.8c-1.273 0-2.494.509-3.394 1.415A4.85 4.85 0 0 0 17 30" stroke="#fff" stroke-width="1.8" stroke-linecap="round" stroke-linejoin="round"/></svg><svg fill="none" viewBox="0 0 33 33" id="cup" xmlns="http://www.w3.org/2000/svg"><path d="M24.619 11.85h1.476c1.566 0 3.068.653 4.175 1.816A6.36 6.36 0 0 1 32 18.05a6.36 6.36 0 0 1-1.73 4.384c-1.107 1.163-2.609 1.816-4.175 1.816H24.62m0-12.4H1V25.8c0 1.644.622 3.221 1.73 4.384C3.836 31.347 5.338 32 6.904 32h11.81c1.565 0 3.067-.653 4.175-1.816a6.361 6.361 0 0 0 1.729-4.384V11.85ZM6.905 1v4.65M12.809 1v4.65M18.715 1v4.65" stroke="#fff" stroke-width="1.8" stroke-linecap="round" stroke-linejoin="round"/></svg><svg viewBox="0 0 7 15" id="facebook" xmlns="http://www.w3.org/2000/svg"><path d="M5.722 2.49H7V.105C6.78.073 6.022 0 5.139 0 3.296 0 2.034 1.242 2.034 3.524v2.101H0v2.666h2.034V15h2.492V8.291h1.952l.31-2.666H4.526V3.788c0-.77.194-1.298 1.196-1.298Z"/></svg><svg viewBox="0 0 15 15" id="instagram" xmlns="http://www.w3.org/2000/svg"><path d="M7.498 3.625c-2.129 0-3.846 1.703-3.846 3.815s1.717 3.815 3.846 3.815c2.13 0 3.847-1.703 3.847-3.815S9.628 3.625 7.498 3.625Zm0 6.295c-1.376 0-2.5-1.112-2.5-2.48 0-1.368 1.121-2.48 2.5-2.48C8.878 4.96 10 6.072 10 7.44c0 1.368-1.125 2.48-2.5 2.48ZM12.4 3.47c0 .495-.402.89-.898.89a.891.891 0 0 1-.897-.89c0-.492.402-.89.897-.89.496 0 .898.398.898.89Zm2.547.903c-.056-1.192-.33-2.248-1.211-3.118-.878-.87-1.942-1.142-3.144-1.202-1.239-.07-4.952-.07-6.19 0C3.203.11 2.138.381 1.258 1.251.378 2.12.106 3.177.046 4.369c-.07 1.228-.07 4.91 0 6.139.057 1.192.331 2.248 1.212 3.118.88.87 1.942 1.142 3.144 1.202 1.238.07 4.951.07 6.19 0 1.202-.057 2.266-.329 3.144-1.202.877-.87 1.151-1.926 1.211-3.118.07-1.229.07-4.907 0-6.136Zm-1.6 7.454a2.521 2.521 0 0 1-1.426 1.415c-.988.388-3.331.298-4.423.298-1.091 0-3.438.087-4.422-.298a2.522 2.522 0 0 1-1.426-1.415c-.392-.98-.302-3.304-.302-4.386 0-1.082-.087-3.41.302-4.386a2.522 2.522 0 0 1 1.426-1.415c.987-.388 3.331-.298 4.422-.298 1.092 0 3.439-.087 4.423.298.656.26 1.162.76 1.426 1.415.392.98.302 3.304.302 4.386 0 1.082.09 3.41-.302 4.386Z"/></svg><svg fill="none" viewBox="0 0 33 32" id="settings" xmlns="http://www.w3.org/2000/svg"><path d="M16.5 20.09c2.335 0 4.227-1.83 4.227-4.09s-1.892-4.09-4.227-4.09c-2.335 0-4.227 1.83-4.227 4.09s1.892 4.09 4.227 4.09Z" stroke="#fff" stroke-width="1.8" stroke-linecap="round" stroke-linejoin="round"/><path d="M26.927 20.09a2.183 2.183 0 0 0-.16 1.31c.082.443.3.851.625 1.173l.085.081c.262.254.47.555.611.886a2.65 2.65 0 0 1 0 2.088c-.141.332-.35.632-.611.886a2.824 2.824 0 0 1-.915.592 2.899 2.899 0 0 1-2.158 0 2.824 2.824 0 0 1-.915-.592l-.085-.082a2.351 2.351 0 0 0-1.21-.606 2.396 2.396 0 0 0-1.354.156 2.31 2.31 0 0 0-1.023.826 2.2 2.2 0 0 0-.386 1.233v.232c0 .723-.297 1.417-.826 1.928a2.866 2.866 0 0 1-1.992.799 2.866 2.866 0 0 1-1.993-.799 2.684 2.684 0 0 1-.825-1.928v-.123a2.202 2.202 0 0 0-.434-1.256 2.318 2.318 0 0 0-1.088-.803 2.396 2.396 0 0 0-1.354-.156c-.457.08-.879.292-1.21.606l-.085.082a2.825 2.825 0 0 1-.915.592 2.899 2.899 0 0 1-2.158 0 2.825 2.825 0 0 1-.915-.592 2.723 2.723 0 0 1-.612-.885 2.651 2.651 0 0 1 0-2.09c.142-.33.35-.631.612-.884l.084-.082c.325-.322.543-.73.626-1.172a2.184 2.184 0 0 0-.16-1.31 2.27 2.27 0 0 0-.854-.99 2.38 2.38 0 0 0-1.274-.374h-.24a2.867 2.867 0 0 1-1.993-.798A2.684 2.684 0 0 1 1 16.109c0-.723.297-1.417.825-1.928a2.867 2.867 0 0 1 1.993-.8h.127c.466-.01.919-.156 1.298-.418.38-.263.669-.63.83-1.054.187-.411.243-.867.16-1.31-.083-.442-.3-.85-.625-1.172l-.085-.082a2.723 2.723 0 0 1-.612-.885 2.651 2.651 0 0 1 0-2.088c.142-.332.35-.632.612-.886.262-.253.573-.454.915-.592a2.9 2.9 0 0 1 2.158 0c.342.138.653.339.915.592l.084.082c.333.315.754.525 1.211.606.458.08.929.026 1.354-.156h.113c.417-.173.772-.46 1.022-.826.25-.365.385-.794.387-1.233v-.232c0-.723.297-1.417.825-1.928A2.867 2.867 0 0 1 16.5 1c.747 0 1.464.287 1.993.799.528.511.825 1.205.825 1.928v.123c.002.439.136.868.387 1.233.25.366.606.653 1.022.826.425.182.897.236 1.354.156.457-.08.879-.292 1.21-.606l.085-.082c.262-.253.573-.454.915-.592a2.9 2.9 0 0 1 2.158 0c.342.138.653.339.915.592.262.254.47.554.612.885a2.651 2.651 0 0 1 0 2.09c-.142.33-.35.631-.612.884l-.085.082c-.324.322-.542.73-.625 1.172-.083.442-.027.899.16 1.31v.11c.18.402.476.746.854.989a2.38 2.38 0 0 0 1.274.374h.24c.747 0 1.464.287 1.993.799.528.511.825 1.205.825 1.928 0 .723-.297 1.417-.825 1.928a2.867 2.867 0 0 1-1.993.8h-.127a2.38 2.38 0 0 0-1.274.373 2.27 2.27 0 0 0-.854.99Z" stroke="#fff" stroke-width="1.8" stroke-linecap="round" stroke-linejoin="round"/></svg><svg viewBox="0 0 17 14" id="twitter" xmlns="http://www.w3.org/2000/svg"><path d="M15.25 3.441c.01.151.01.302.01.453 0 4.606-3.505 9.913-9.912 9.913a9.844 9.844 0 0 1-5.35-1.564c.28.032.55.043.841.043 1.629 0 3.128-.55 4.325-1.488A3.49 3.49 0 0 1 1.907 8.38c.216.033.432.054.658.054.313 0 .626-.043.917-.118a3.485 3.485 0 0 1-2.794-3.42v-.043c.464.259 1.003.42 1.575.442A3.482 3.482 0 0 1 .71 2.395c0-.648.172-1.24.474-1.759a9.902 9.902 0 0 0 7.184 3.646 3.934 3.934 0 0 1-.086-.798A3.482 3.482 0 0 1 11.765 0c1.003 0 1.91.42 2.546 1.1A6.86 6.86 0 0 0 16.522.26a3.475 3.475 0 0 1-1.532 1.92 6.984 6.984 0 0 0 2.007-.54 7.49 7.49 0 0 1-1.748 1.802Z"/></svg></svg>